<svg width="273" height="126" viewBox="0 0 273 126" fill="none" xmlns="http://www.w3.org/2000/svg">
<path d="M51.37 31.9443H42.66C39.47 31.9443 38.2 33.0043 38.2 35.4443C38.2 38.8443 46.48 37.9943 46.48 48.8243V65.0743C46.48 76.2243 45.63 81.2143 39.79 81.2143C33.53 81.2143 32.68 75.6943 32.68 61.9943C32.68 56.8943 33.1 51.5843 33.1 46.7043C33.1 42.3543 31.72 40.5443 28.43 40.5443C25.14 40.5443 23.76 42.4543 23.76 47.3443C24.08 56.0543 24.5 58.2843 24.5 64.3343C24.5 75.6943 22.8 81.2143 17.28 81.2143C11.44 81.2143 9.95 76.2243 9.95 65.4943C9.95 54.7643 10.37 48.8243 10.37 37.4643C10.37 33.8543 8.99 32.3643 5.59 32.3643C2.3 32.3643 0.919998 34.1743 0.919998 38.5243V59.5443C0.919998 63.0443 0.5 72.9243 0.5 76.8543C0.5 92.6743 1.02999 106.374 15.37 106.374C20.47 106.374 24.4 103.504 26.52 100.534C27.69 98.9443 28.11 99.0443 29.6 101.064C31.72 103.934 35.76 106.374 41.28 106.374C52.54 106.374 55.19 98.6243 55.19 79.1943C55.19 75.5843 54.77 74.0943 54.77 56.0443C54.77 54.4543 55.3 41.4943 55.3 36.6143C55.3 32.8943 54.55 31.9443 51.37 31.9443Z" fill="black" stroke="#181716" stroke-miterlimit="10"/>
<path d="M92.7798 75.2643C89.3798 75.2643 89.0598 80.8943 78.6598 80.8943C71.2298 80.8943 68.0398 77.6043 68.0398 71.8643C68.0398 63.7943 74.5198 63.0543 80.6798 63.0543C82.0598 63.0543 87.0498 63.6943 90.1298 63.6943C94.3498 63.6943 95.8498 62.4743 96.3598 60.7543C97.3398 57.4643 94.5998 54.1943 91.1598 54.2443C86.4698 54.3143 80.4298 55.1143 75.7698 54.8043C71.9198 54.5443 69.0498 50.9943 69.7898 47.2143C70.3898 44.1343 72.6698 42.1343 76.1098 42.1343C79.8298 42.1343 84.6098 43.7243 87.3698 43.7243C92.5698 43.7243 94.2698 41.7043 94.2698 38.7343C94.2698 31.9343 87.3698 32.5743 81.7398 32.5743C78.3398 32.5743 76.3198 32.2543 72.6098 32.2543C64.1098 32.2543 60.3998 33.9543 60.3998 39.4743C60.3998 49.6643 60.7198 56.4643 60.7198 72.6043C60.7198 77.3843 59.7598 90.1243 59.7598 91.8243C59.7598 102.554 66.8698 106.904 79.2998 106.904C92.6798 106.904 97.0298 102.124 97.0298 87.3643C97.0298 79.1943 95.6498 75.2643 92.7798 75.2643Z" fill="black" stroke="#181716" stroke-miterlimit="10"/>
<path d="M124.1 31.6243C118.05 31.6243 112.42 35.7643 111.04 35.7643C109.02 35.7643 109.34 32.0443 104.24 32.0443C102.54 32.0443 100.84 34.2743 100.84 41.9243C100.84 46.5943 101.58 51.6943 101.58 69.5343C101.58 88.2243 100.84 94.5943 100.84 98.9443C100.84 103.614 102.11 106.274 106.26 106.374C110.4 106.374 111.78 103.404 111.78 98.9443C111.78 94.5943 110.51 92.9943 110.51 74.3043C110.51 68.5743 111.78 57.1043 121.23 57.1043C130.15 57.1043 131.74 63.0543 131.74 76.5343C131.74 82.5843 131 90.7643 130.68 99.5743C130.68 104.454 131.95 106.374 135.46 106.374C138.22 106.374 140.34 104.464 140.34 100.214C140.34 95.2243 139.92 84.0743 139.92 78.9743C139.92 67.8243 140.34 59.3343 140.34 53.2743C140.35 37.9943 135.46 31.6243 124.1 31.6243Z" fill="black" stroke="#181716" stroke-miterlimit="10"/>
<path d="M187.07 71.7643C187.07 49.0443 176.45 32.2643 154.05 32.2643C143.01 32.2643 144.92 38.3143 144.92 47.1343V96.6143C144.92 106.384 148.53 106.384 158.62 106.384C181.23 106.374 187.07 95.3343 187.07 71.7643ZM168.37 100.144C168.54 100.504 168.28 100.924 167.88 100.904L153.9 100.374C153.63 100.364 153.41 100.144 153.39 99.8743C153.12 94.4943 151.52 46.0743 182.15 71.1443C182.28 71.2543 182.36 71.4243 182.35 71.6043L181.5 82.3743C181.48 82.6343 181.27 82.8443 181.01 82.8543C177.96 83.0043 160.91 84.5743 168.37 100.144Z" fill="black" stroke="#181716" stroke-miterlimit="10"/>
<path d="M267.77 31.9443C264.27 31.9443 263.42 33.4343 262.57 37.8943C259.38 54.3543 256.94 57.9643 254.39 57.9643C251.52 57.9643 247.81 53.1843 244.62 41.4043C243.35 36.3043 242.5 31.8443 238.67 31.8443C234.63 31.8443 234.32 35.5643 234.32 37.5743C234.32 46.9143 249.19 68.1543 249.19 77.5043C249.19 82.4943 246.32 86.3143 243.46 86.3143C240.17 86.3143 239.11 82.9143 236.98 82.9143C234.75 82.9143 234.75 87.5843 234.75 91.9443C234.75 100.654 239 106.384 244.63 106.384C249.94 106.384 253.13 103.834 255.89 95.8743C256.42 94.2843 270.97 39.4943 271.39 38.0043C272.87 32.0443 268.94 31.9443 267.77 31.9443Z" fill="black" stroke="#181716" stroke-miterlimit="10"/>
<path d="M200.54 32.2043C189.5 32.2043 191.41 38.2543 191.41 47.0743V96.5543C191.41 106.324 195.02 106.324 205.11 106.324C227.73 106.324 233.57 95.2843 233.57 71.7043C233.57 48.9843 222.95 32.2043 200.54 32.2043ZM228.85 71.5543L228 82.3243C227.98 82.5843 227.77 82.7943 227.51 82.8043C224.46 82.9543 207.41 84.5143 214.87 100.084C215.04 100.444 214.78 100.864 214.38 100.844L200.4 100.314C200.13 100.304 199.91 100.084 199.89 99.8143C199.62 94.4343 198.02 46.0143 228.65 71.0843C228.79 71.2043 228.86 71.3743 228.85 71.5543Z" fill="black" stroke="#181716" stroke-miterlimit="10"/>
<path d="M147.21 3.52429C149.84 7.61429 158.61 21.3043 160.53 24.5243C160.66 24.7343 161.49 24.2043 161.37 23.9843C160.16 21.7343 149.55 5.26429 146.63 0.744292C146.37 0.334292 145.75 0.474289 145.67 0.944289C144.78 6.53429 141.42 27.6943 140.82 31.4643C140.78 31.7143 141.77 31.8643 141.81 31.6243C142.37 28.1043 145.4 9.00429 146.24 3.72429C146.32 3.24429 146.95 3.11429 147.21 3.52429Z" fill="black" stroke="#181716" stroke-miterlimit="10"/>
<path d="M148.53 10.3843C148.27 9.9743 147.64 10.1043 147.57 10.5843L144.5 29.8843L157.78 24.9543L148.53 10.3843Z" fill="black" stroke="#181716" stroke-miterlimit="10"/>
<path d="M207.17 28.2643C208.61 26.0043 217.78 11.5443 220.49 7.28431C220.75 6.87431 221.38 7.0043 221.45 7.4843C222.33 13.1343 225.64 34.3343 225.89 35.3643C225.95 35.6043 226.91 35.4543 226.88 35.2043C226.54 32.8743 222.95 10.4443 222.03 4.6843C221.95 4.2043 221.34 4.07429 221.07 4.47429C218.06 9.11429 206.85 26.4043 206.33 27.7243C206.23 27.9643 207.04 28.4743 207.17 28.2643Z" fill="black" stroke="#181716" stroke-miterlimit="10"/>
<path d="M219.17 14.1243L209.92 28.6943L223.2 33.6243L220.13 14.3243C220.06 13.8443 219.43 13.7143 219.17 14.1243Z" fill="black" stroke="#181716" stroke-miterlimit="10"/>
<path d="M184.2 106.284C184.01 105.874 183.42 105.884 183.24 106.294L175.65 123.904C175.48 124.294 175.82 124.714 176.24 124.624L190.7 121.764C191.04 121.694 191.22 121.334 191.08 121.024L184.2 106.284Z" fill="black" stroke="#181716" stroke-miterlimit="10"/>
</svg>
