<svg width="38" height="25" viewBox="0 0 38 25" fill="none" xmlns="http://www.w3.org/2000/svg">
<path d="M37.4999 15.7167C37.4514 15.8115 37.3796 15.9081 37.2894 16.0072C36.5625 16.5355 34.8565 15.9486 34.8565 15.9486C31.4213 14.5695 31.4543 13.8067 26.7963 11.196C22.1383 8.58435 20.572 10.628 20.572 10.628C20.6322 10.4202 20.7001 10.2487 20.7758 10.1263C21.3794 9.15839 24.5003 7.80862 26.7468 9.71605C28.9758 11.608 34.9769 14.0205 35.071 14.0575H35.072C36.4131 15.1229 37.4999 15.7167 37.4999 15.7167Z" fill="white"/>
<path d="M34.8566 15.9486C34.8566 15.9486 36.5626 16.5355 37.2894 16.0072C36.4083 16.9751 33.7668 18.0637 33.7668 18.0637C34.4936 18.1809 36.7731 17.8293 36.7731 17.8293C36.3821 18.5705 35.8221 19.2187 35.1399 19.7841C31.7047 20.7227 28.4975 18.5766 26.6148 17.5793C25.3737 16.9217 23.0554 16.2899 21.6201 15.9348C21.6201 15.9348 21.5997 15.9296 21.5609 15.9193C20.7681 15.6995 20.2227 15.0513 20.2111 14.3092C20.1936 13.1517 20.3081 11.5407 20.5721 10.628C20.5721 10.628 22.1383 8.58435 26.7963 11.196C31.4543 13.8067 31.4213 14.5695 34.8566 15.9486ZM26.1355 13.0258C26.1355 12.1717 25.3562 11.4795 24.3945 11.4795C23.4329 11.4795 22.6536 12.1717 22.6536 13.0258C22.6536 13.88 23.4338 14.5712 24.3945 14.5712C25.3552 14.5712 26.1355 13.8791 26.1355 13.0258Z" fill="#3E3F3B"/>
<path d="M31.0904 9.52574C32.1064 11.4306 33.7183 12.9838 35.071 14.0577C34.9769 14.0206 28.9759 11.6081 26.7468 9.71622C24.5003 7.8088 21.3794 9.15856 20.7759 10.1265C20.7002 10.2489 20.6322 10.4204 20.5721 10.6281C20.3081 11.5409 20.1936 13.1518 20.2111 14.3094C20.2227 15.0515 20.7681 15.6997 21.5609 15.9194C21.2892 15.8514 20.1305 15.579 19 15.5747C17.8685 15.579 16.7098 15.8514 16.4381 15.9194C17.2309 15.6997 17.7773 15.0515 17.7889 14.3094C17.8064 13.1518 17.6919 11.5409 17.4269 10.6281C17.3668 10.4195 17.2989 10.248 17.2232 10.1265C16.6196 9.15856 13.4987 7.8088 11.2522 9.71622C9.02316 11.6081 3.02309 14.0206 2.92896 14.0577C4.28074 12.9838 5.8926 11.4306 6.90863 9.52574C7.16288 9.0491 7.44527 8.61124 7.7558 8.20873C8.11097 7.74846 8.50302 7.33474 8.93291 6.96584C9.99357 6.05049 11.2842 5.39974 12.8126 4.96274C13.4094 4.79122 14.0421 4.65245 14.7127 4.54299C16.0034 4.33182 17.4318 4.23011 19 4.2146C20.5682 4.23011 21.9966 4.33182 23.2873 4.54299C23.9569 4.65245 24.5905 4.79122 25.1864 4.96188C26.7148 5.39974 28.0064 6.05049 29.0671 6.96498C29.497 7.33474 29.889 7.74846 30.2442 8.20873C30.5547 8.61124 30.8361 9.0491 31.0904 9.52574Z" fill="#757771"/>
<path d="M18.9999 19.3704L21.1339 16.8941H16.866L18.9999 19.3704ZM26.6148 17.5793C28.4974 18.5765 31.7046 20.7227 35.1399 19.7841C30.2305 23.8627 18.9999 23.7265 18.9999 23.7265C18.9999 23.7265 7.76737 23.8627 2.85901 19.7841C6.29525 20.7227 9.5015 18.5765 11.3841 17.5793C12.6262 16.9216 14.9436 16.2899 16.3788 15.9347C16.3788 15.9347 16.3992 15.9296 16.438 15.9192C16.7097 15.8511 17.8684 15.5788 18.9999 15.5745C20.1305 15.5788 21.2891 15.8511 21.5608 15.9192C21.5997 15.9296 21.62 15.9347 21.62 15.9347C23.0553 16.2899 25.3736 16.9216 26.6148 17.5793Z" fill="white"/>
<path d="M30.0627 0.565116C30.3635 0.388423 30.7623 0.593559 30.74 0.913331L30.2441 8.20861C29.889 7.74834 29.4969 7.33462 29.067 6.96486L29.3213 2.78197C29.3319 2.60355 29.134 2.48978 28.9845 2.58804L25.1863 4.96176C24.5905 4.7911 23.9568 4.65233 23.2872 4.54287L30.0627 0.565116Z" fill="#3E3F3B"/>
<path d="M28.9846 2.58801C29.134 2.48975 29.332 2.60352 29.3213 2.78194L29.0671 6.96483C28.0064 6.05033 26.7148 5.39959 25.1864 4.96173L28.9846 2.58801Z" fill="white"/>
<path d="M24.3945 11.4795C25.3562 11.4795 26.1354 12.1716 26.1354 13.0258C26.1354 13.8799 25.3562 14.5712 24.3945 14.5712C23.4328 14.5712 22.6536 13.8791 22.6536 13.0258C22.6536 12.1725 23.4338 11.4795 24.3945 11.4795ZM23.8414 12.5672C23.8414 12.3992 23.688 12.2621 23.4988 12.2621C23.3096 12.2621 23.1553 12.3992 23.1553 12.5672C23.1553 12.7353 23.3086 12.8715 23.4988 12.8715C23.689 12.8715 23.8414 12.7353 23.8414 12.5672Z" fill="black"/>
<path d="M23.4988 12.2622C23.688 12.2622 23.8414 12.3993 23.8414 12.5673C23.8414 12.7354 23.688 12.8716 23.4988 12.8716C23.3096 12.8716 23.1553 12.7354 23.1553 12.5673C23.1553 12.3993 23.3086 12.2622 23.4988 12.2622Z" fill="white"/>
<path d="M21.1339 16.8943L18.9999 19.3706L16.866 16.8943H18.9999H21.1339Z" fill="black"/>
<path d="M17.4268 10.628C17.6917 11.5407 17.8062 13.1517 17.7888 14.3092C17.7771 15.0513 17.2308 15.6995 16.438 15.9193C16.3991 15.9296 16.3788 15.9348 16.3788 15.9348C14.9435 16.2899 12.6262 16.9217 11.384 17.5793C9.50144 18.5766 6.29518 20.7227 2.85895 19.7841C2.17674 19.2178 1.61779 18.5697 1.22671 17.8293C1.22671 17.8293 3.50621 18.1809 4.23305 18.0637C4.23305 18.0637 1.59159 16.9751 0.710449 16.0072C1.43632 16.5355 3.14231 15.9486 3.14231 15.9486C6.57855 14.5695 6.54555 13.8067 11.2035 11.196C15.8615 8.58435 17.4268 10.628 17.4268 10.628ZM15.3453 13.0258C15.3453 12.1717 14.566 11.4795 13.6043 11.4795C12.6427 11.4795 11.8644 12.1717 11.8644 13.0258C11.8644 13.88 12.6436 14.5712 13.6043 14.5712C14.5651 14.5712 15.3453 13.8791 15.3453 13.0258Z" fill="#3E3F3B"/>
<path d="M17.2232 10.1263C17.2988 10.2479 17.3668 10.4194 17.4269 10.628C17.4269 10.628 15.8617 8.58435 11.2037 11.196C6.54568 13.8067 6.57868 14.5695 3.14244 15.9486C3.14244 15.9486 1.43645 16.5355 0.710581 16.0072C0.620333 15.9081 0.548521 15.8115 0.5 15.7167C0.5 15.7167 1.5859 15.1229 2.92798 14.0584H2.92895C3.02308 14.0205 9.02315 11.608 11.2522 9.71605C13.4987 7.80862 16.6196 9.15839 17.2232 10.1263Z" fill="white"/>
<path d="M13.6046 11.4795C14.5663 11.4795 15.3455 12.1716 15.3455 13.0258C15.3455 13.8799 14.5663 14.5712 13.6046 14.5712C12.6429 14.5712 11.8646 13.8791 11.8646 13.0258C11.8646 12.1725 12.6439 11.4795 13.6046 11.4795ZM14.8438 12.5672C14.8438 12.3992 14.6905 12.2621 14.5012 12.2621C14.312 12.2621 14.1577 12.3992 14.1577 12.5672C14.1577 12.7353 14.312 12.8715 14.5012 12.8715C14.6905 12.8715 14.8438 12.7353 14.8438 12.5672Z" fill="black"/>
<path d="M14.501 12.2622C14.6902 12.2622 14.8436 12.3993 14.8436 12.5673C14.8436 12.7354 14.6902 12.8716 14.501 12.8716C14.3118 12.8716 14.1575 12.7354 14.1575 12.5673C14.1575 12.3993 14.3118 12.2622 14.501 12.2622Z" fill="white"/>
<path d="M7.9372 0.565116L14.7126 4.54287C14.0421 4.65233 13.4094 4.7911 12.8126 4.96262L9.01533 2.58804C8.86589 2.48978 8.66792 2.60355 8.6786 2.78197L8.93188 6.96486H8.93284C8.50295 7.33462 8.11091 7.74834 7.75573 8.20861L7.25888 0.913331C7.23753 0.593559 7.63637 0.388423 7.9372 0.565116Z" fill="#3E3F3B"/>
<path d="M12.8127 4.96173C11.2843 5.39959 9.99367 6.05033 8.93301 6.96569H8.93204L8.67876 2.78194C8.66808 2.60352 8.86605 2.48975 9.01549 2.58801L12.8127 4.96173Z" fill="white"/>
<path d="M2.92896 14.0577C4.28074 12.9838 5.8926 11.4306 6.90863 9.52574C7.16288 9.0491 7.44527 8.61124 7.7558 8.20873C8.11097 7.74846 8.50302 7.33474 8.93291 6.96584C9.99357 6.05049 11.2842 5.39974 12.8126 4.96274C13.4094 4.79122 14.0421 4.65245 14.7127 4.54299C16.0034 4.33182 17.4318 4.23011 19 4.2146" stroke="black" stroke-linejoin="round"/>
<path d="M19 23.7265C19 23.7265 7.76744 23.8627 2.85908 19.7841C2.17688 19.2178 1.61792 18.5696 1.22684 17.8292C1.22684 17.8292 3.50634 18.1809 4.23319 18.0637C4.23319 18.0637 1.59172 16.9751 0.710581 16.0071C0.620333 15.908 0.548521 15.8115 0.5 15.7167C0.5 15.7167 1.5859 15.1228 2.92798 14.0583" stroke="black" stroke-linejoin="round"/>
<path d="M16.3788 15.9348C14.9436 16.2899 12.6262 16.9217 11.3841 17.5794C9.5015 18.5766 6.29525 20.7228 2.85901 19.7841" stroke="black" stroke-miterlimit="10"/>
<path d="M2.92896 14.0575C3.02309 14.0205 9.02316 11.608 11.2522 9.71605C13.4987 7.80862 16.6196 9.15839 17.2232 10.1263C17.2989 10.2479 17.3668 10.4194 17.427 10.628C17.6919 11.5407 17.8064 13.1517 17.7889 14.3092C17.7773 15.0513 17.2309 15.6995 16.4381 15.9193" stroke="black" stroke-miterlimit="10"/>
<path d="M2.92786 14.0583H2.92973" stroke="black" stroke-linejoin="round"/>
<path d="M0.710449 16.0072C1.43632 16.5355 3.14231 15.9486 3.14231 15.9486C6.57855 14.5695 6.54555 13.8067 11.2035 11.196C15.8615 8.58435 17.4268 10.628 17.4268 10.628" stroke="black" stroke-linejoin="round"/>
<path d="M15.3455 13.0258C15.3455 13.8791 14.5663 14.5712 13.6046 14.5712C12.6429 14.5712 11.8646 13.8791 11.8646 13.0258C11.8646 12.1725 12.6439 11.4795 13.6046 11.4795C14.5653 11.4795 15.3455 12.1716 15.3455 13.0258Z" stroke="black" stroke-linejoin="round"/>
<path d="M16.3789 15.9347C16.3789 15.9347 16.3993 15.9296 16.4381 15.9192C16.7098 15.8511 17.8685 15.5788 19 15.5745" stroke="black" stroke-miterlimit="10"/>
<path d="M18.9999 16.8943H16.866L18.9999 19.3706C18.9999 19.3706 18.6321 22.2054 16.866 19.5981" stroke="black" stroke-linecap="round" stroke-linejoin="round"/>
<path d="M7.75573 8.20861L7.25888 0.913331C7.23753 0.593559 7.63637 0.388423 7.9372 0.565116L14.7126 4.54287" stroke="black" stroke-linejoin="round"/>
<path d="M8.93204 6.96483L8.67876 2.78194C8.66808 2.60352 8.86605 2.48975 9.01549 2.58801L12.8127 4.96173" stroke="black" stroke-linejoin="round"/>
<path d="M35.071 14.0577C33.7183 12.9838 32.1064 11.4306 31.0904 9.52574C30.8361 9.0491 30.5547 8.61124 30.2442 8.20873C29.889 7.74846 29.497 7.33474 29.0671 6.96498C28.0064 6.05049 26.7148 5.39974 25.1864 4.96188C24.5906 4.79122 23.9569 4.65245 23.2873 4.54299C21.9966 4.33182 20.5682 4.23011 19 4.2146" stroke="black" stroke-linejoin="round"/>
<path d="M19 23.7265C19 23.7265 30.2306 23.8627 35.1399 19.7841C35.8221 19.2187 36.3821 18.5705 36.7731 17.8292C36.7731 17.8292 34.4936 18.1809 33.7668 18.0637C33.7668 18.0637 36.4083 16.9751 37.2894 16.0071C37.3797 15.908 37.4515 15.8115 37.5 15.7167C37.5 15.7167 36.4131 15.1228 35.072 14.0583" stroke="black" stroke-linejoin="round"/>
<path d="M21.6201 15.9348C23.0554 16.2899 25.3737 16.9217 26.6148 17.5794C28.4974 18.5766 31.7047 20.7228 35.1399 19.7841" stroke="black" stroke-miterlimit="10"/>
<path d="M35.072 14.0584H35.071C34.9769 14.0205 28.9759 11.608 26.7468 9.71605C24.5003 7.80862 21.3795 9.15839 20.7759 10.1263C20.7002 10.2487 20.6322 10.4202 20.5721 10.628C20.3081 11.5407 20.1936 13.1517 20.2111 14.3092C20.2227 15.0513 20.7681 15.6995 21.5609 15.9193" stroke="black" stroke-miterlimit="10"/>
<path d="M37.2894 16.0072C36.5625 16.5355 34.8565 15.9486 34.8565 15.9486C31.4213 14.5695 31.4543 13.8067 26.7963 11.196C22.1383 8.58435 20.572 10.628 20.572 10.628" stroke="black" stroke-linejoin="round"/>
<path d="M22.6536 13.0258C22.6536 13.8791 23.4338 14.5712 24.3945 14.5712C25.3552 14.5712 26.1354 13.8791 26.1354 13.0258C26.1354 12.1725 25.3562 11.4795 24.3945 11.4795C23.4328 11.4795 22.6536 12.1716 22.6536 13.0258Z" stroke="black" stroke-linejoin="round"/>
<path d="M21.6201 15.9347C21.6201 15.9347 21.5997 15.9296 21.5609 15.9192C21.2892 15.8511 20.1305 15.5788 19 15.5745" stroke="black" stroke-miterlimit="10"/>
<path d="M19 16.8943H21.1339L19 19.3706C19 19.3706 19.3678 22.2054 21.1339 19.5981" stroke="black" stroke-linecap="round" stroke-linejoin="round"/>
<path d="M30.2441 8.20861L30.74 0.913331C30.7623 0.593559 30.3635 0.388423 30.0627 0.565116L23.2872 4.54287" stroke="black" stroke-linejoin="round"/>
<path d="M29.0671 6.96483L29.3213 2.78194C29.332 2.60352 29.134 2.48975 28.9846 2.58801L25.1864 4.96173" stroke="black" stroke-linejoin="round"/>
</svg>
